<svg width="112" height="112" viewBox="0 0 112 112" fill="none" xmlns="http://www.w3.org/2000/svg" shape-rendering="geometricPrecision">
  <circle cx="56" cy="56" r="56" fill="url(#paint0_linear_16_6)"/>
  <path d="M85.496 40.92C85.496 45 84.056 48.528 81.176 51.504C78.296 54.432 74.096 56.544 68.576 57.84C71.552 58.656 73.808 60 75.344 61.872C76.88 63.696 77.648 65.808 77.648 68.208C77.648 72 76.448 75.288 74.048 78.072C71.696 80.856 68.24 83.016 63.68 84.552C59.12 86.04 53.624 86.784 47.192 86.784C44.792 86.784 42.872 86.712 41.432 86.568C41.384 87.912 40.808 88.92 39.704 89.592C38.6 90.264 37.184 90.6 35.456 90.6C33.728 90.6 32.528 90.216 31.856 89.448C31.232 88.68 30.968 87.552 31.064 86.064C31.496 79.344 32.336 72.312 33.584 64.968C34.832 57.576 36.416 50.448 38.336 43.584C38.672 42.384 39.344 41.544 40.352 41.064C41.36 40.584 42.68 40.344 44.312 40.344C47.24 40.344 48.704 41.16 48.704 42.792C48.704 43.464 48.56 44.232 48.272 45.096C47.024 48.84 45.776 53.928 44.528 60.36C43.28 66.744 42.392 72.84 41.864 78.648C44.168 78.84 46.04 78.936 47.48 78.936C54.2 78.936 59.12 77.976 62.24 76.056C65.408 74.088 66.992 71.592 66.992 68.568C66.992 66.456 66.08 64.68 64.256 63.24C62.48 61.8 59.48 61.008 55.256 60.864C54.296 60.816 53.624 60.576 53.24 60.144C52.856 59.712 52.664 59.016 52.664 58.056C52.664 56.664 52.952 55.536 53.528 54.672C54.104 53.808 55.16 53.352 56.696 53.304C60.104 53.208 63.176 52.704 65.912 51.792C68.696 50.88 70.88 49.608 72.464 47.976C74.048 46.296 74.84 44.352 74.84 42.144C74.84 39.36 73.472 37.176 70.736 35.592C68 33.96 63.8 33.144 58.136 33.144C53 33.144 48.032 33.816 43.232 35.16C38.432 36.456 34.352 38.112 30.992 40.128C29.456 41.04 28.16 41.496 27.104 41.496C26.24 41.496 25.568 41.208 25.088 40.632C24.656 40.008 24.44 39.24 24.44 38.328C24.44 37.128 24.68 36.096 25.16 35.232C25.688 34.368 26.912 33.384 28.832 32.28C32.864 29.976 37.592 28.176 43.016 26.88C48.44 25.584 53.984 24.936 59.648 24.936C68.336 24.936 74.816 26.4 79.088 29.328C83.36 32.256 85.496 36.12 85.496 40.92Z" fill="#FFD592"/>
  <defs>
    <linearGradient id="paint0_linear_16_6" x1="85.5" y1="1.9045" x2="21.5" y2="112.756" gradientUnits="userSpaceOnUse">
      <stop stop-color="#6444FD"/>
      <stop offset="1" stop-color="#301B97"/>
    </linearGradient>
  </defs>
</svg>