<svg width="62" height="67" viewBox="0 0 62 67" fill="none" xmlns="http://www.w3.org/2000/svg" shape-rendering="geometricPrecision">
  <path d="M61.496 16.92C61.496 21 60.056 24.528 57.176 27.504C54.296 30.432 50.096 32.544 44.576 33.84C47.552 34.656 49.808 36 51.344 37.872C52.88 39.696 53.648 41.808 53.648 44.208C53.648 48 52.448 51.288 50.048 54.072C47.696 56.856 44.24 59.016 39.68 60.552C35.12 62.04 29.624 62.784 23.192 62.784C20.792 62.784 18.872 62.712 17.432 62.568C17.384 63.912 16.808 64.92 15.704 65.592C14.6 66.264 13.184 66.6 11.456 66.6C9.728 66.6 8.528 66.216 7.856 65.448C7.232 64.68 6.968 63.552 7.064 62.064C7.496 55.344 8.336 48.312 9.584 40.968C10.832 33.576 12.416 26.448 14.336 19.584C14.672 18.384 15.344 17.544 16.352 17.064C17.36 16.584 18.68 16.344 20.312 16.344C23.24 16.344 24.704 17.16 24.704 18.792C24.704 19.464 24.56 20.232 24.272 21.096C23.024 24.84 21.776 29.928 20.528 36.36C19.28 42.744 18.392 48.84 17.864 54.648C20.168 54.84 22.04 54.936 23.48 54.936C30.2 54.936 35.12 53.976 38.24 52.056C41.408 50.088 42.992 47.592 42.992 44.568C42.992 42.456 42.08 40.68 40.256 39.24C38.48 37.8 35.48 37.008 31.256 36.864C30.296 36.816 29.624 36.576 29.24 36.144C28.856 35.712 28.664 35.016 28.664 34.056C28.664 32.664 28.952 31.536 29.528 30.672C30.104 29.808 31.16 29.352 32.696 29.304C36.104 29.208 39.176 28.704 41.912 27.792C44.696 26.88 46.88 25.608 48.464 23.976C50.048 22.296 50.84 20.352 50.84 18.144C50.84 15.36 49.472 13.176 46.736 11.592C44 9.96 39.8 9.144 34.136 9.144C29 9.144 24.032 9.816 19.232 11.16C14.432 12.456 10.352 14.112 6.992 16.128C5.456 17.04 4.16 17.496 3.104 17.496C2.24 17.496 1.568 17.208 1.088 16.632C0.656 16.008 0.44 15.24 0.44 14.328C0.44 13.128 0.68 12.096 1.16 11.232C1.688 10.368 2.912 9.384 4.832 8.28C8.864 5.976 13.592 4.176 19.016 2.88C24.44 1.584 29.984 0.935997 35.648 0.935997C44.336 0.935997 50.816 2.4 55.088 5.328C59.36 8.256 61.496 12.12 61.496 16.92Z" fill="#FFD592"/>
</svg>